<svg preserveAspectRatio="none" overflow="visible" style="display: block;" width="24" height="24" viewBox="0 0 24 24" fill="none" xmlns="http://www.w3.org/2000/svg">
<g id="arrowRight">
<path id="vector" d="M13.7129 5.97213C13.7929 5.896 13.9199 5.89905 13.9961 5.97897L19.5986 11.8618C19.672 11.939 19.672 12.06 19.5986 12.1372L13.9961 18.021C13.9199 18.1009 13.7929 18.1039 13.7129 18.0278L13.1338 17.4751C13.0538 17.3989 13.0508 17.2728 13.127 17.1928L17.501 12.5991H4.46973C4.3594 12.5989 4.26953 12.5092 4.26953 12.3989V11.6001C4.26953 11.4897 4.3594 11.4 4.46973 11.3999H17.501L13.127 6.80611C13.0509 6.72611 13.0539 6.6 13.1338 6.52389L13.4238 6.2485L13.7129 5.97213Z" fill="white"/>
</g>
</svg>
