<svg overflow="visible" style="display: block;" viewBox="0 0 15.6944 13.576" fill="none" xmlns="http://www.w3.org/2000/svg">
<path id="vector" d="M8.28323 1.27149C9.97857 -0.423848 12.7275 -0.423816 14.4229 1.27149C16.1182 2.96685 16.1182 5.71579 14.4229 7.41115L13.333 8.50002C13.3165 8.5193 13.3005 8.53936 13.2823 8.55764L8.55667 13.2832C8.31253 13.5273 7.97341 13.6187 7.65823 13.5576L7.56057 13.5332C7.54273 13.5279 7.52542 13.521 7.50784 13.5147C7.49558 13.5102 7.48283 13.5069 7.47073 13.502C7.3497 13.4532 7.23583 13.3803 7.13772 13.2823L2.4131 8.55666C2.40256 8.54611 2.39281 8.53435 2.38283 8.52346L1.2715 7.41213C-0.423825 5.71677 -0.423842 2.96782 1.2715 1.27247C2.96686 -0.422786 5.71583 -0.422828 7.41116 1.27247L7.8467 1.70802L8.28323 1.27149ZM13.5742 2.12013C12.3475 0.893441 10.3586 0.893423 9.13186 2.12013L8.69534 2.55665C8.22671 3.02528 7.4667 3.02528 6.99807 2.55665L6.56252 2.12111C5.33585 0.894466 3.34689 0.89444 2.12014 2.12111C0.893422 3.34782 0.893437 5.33676 2.12014 6.56349L3.23146 7.67482L3.2676 7.71291C3.26935 7.71482 3.27086 7.71698 3.27248 7.71877L7.84768 12.294L12.417 7.7256C12.4188 7.72349 12.4208 7.72114 12.4229 7.71877L12.4854 7.65138L13.5742 6.56252C14.801 5.33579 14.801 3.34686 13.5742 2.12013Z" fill="black"/>
</svg>
